{
  "accessors": [
    {
      "bufferView": 2,
      "componentType": 5126,
      "count": 19101,
      "max": [
        8.353662490844727,
        21.983535766601563,
        6.633620738983154
      ],
      "min": [
        -7.686319351196289,
        1.3314094543457031,
        -8.487951278686523
      ],
      "type": "VEC3"
    },
    {
      "bufferView": 2,
      "byteOffset": 229212,
      "componentType": 5126,
      "count": 19101,
      "max": [
        0.999885082244873,
        0.9999436736106873,
        0.9999915361404419
      ],
      "min": [
        -0.9997013211250305,
        -0.9999350309371948,
        -0.9996758103370667
      ],
      "type": "VEC3"
    },
    {
      "bufferView": 3,
      "componentType": 5126,
      "count": 19101,
      "max": [
        0.8745098114013672,
        0.8980392217636108,
        0.9411764740943909,
        1.0
      ],
      "min": [
        0.0,
        0.0,
        0.0,
        1.0
      ],
      "type": "VEC4"
    },
    {
      "bufferView": 1,
      "componentType": 5126,
      "count": 19101,
      "max": [
        0.9997557401657104,
        0.38842764496803284
      ],
      "min": [
        0.000244140625,
        0.00024410022888332605
      ],
      "type": "VEC2"
    },
    {
      "bufferView": 0,
      "componentType": 5125,
      "count": 75000,
      "type": "SCALAR"
    }
  ],
  "asset": {
    "extras": {
      "author": "203Null (https://sketchfab.com/203Null)",
      "license": "CC-BY-4.0 (http://creativecommons.org/licenses/by/4.0/)",
      "source": "https://sketchfab.com/3d-models/project-marisa-kirisame-fumo-7dea820bf4884ecc8f2c31a085b07428",
      "title": "東方Project Marisa Kirisame Fumo 霧雨 魔理沙"
    },
    "generator": "Sketchfab-15.34.0",
    "version": "2.0"
  },
  "bufferViews": [
    {
      "buffer": 0,
      "byteLength": 300000,
      "name": "floatBufferViews",
      "target": 34963
    },
    {
      "buffer": 0,
      "byteLength": 152808,
      "byteOffset": 300000,
      "byteStride": 8,
      "name": "floatBufferViews",
      "target": 34962
    },
    {
      "buffer": 0,
      "byteLength": 458424,
      "byteOffset": 452808,
      "byteStride": 12,
      "name": "floatBufferViews",
      "target": 34962
    },
    {
      "buffer": 0,
      "byteLength": 305616,
      "byteOffset": 911232,
      "byteStride": 16,
      "name": "floatBufferViews",
      "target": 34962
    }
  ],
  "buffers": [
    {
      "byteLength": 1216848,
      "uri": "scene.bin"
    }
  ],
  "images": [
    {
      "uri": "textures/Material_u1_v1.001_emissive.png"
    }
  ],
  "materials": [
    {
      "doubleSided": true,
      "emissiveFactor": [
        1.0,
        1.0,
        1.0
      ],
      "emissiveTexture": {
        "index": 0
      },
      "name": "Material_u1_v1.001"
    }
  ],
  "meshes": [
    {
      "name": "Object_0",
      "primitives": [
        {
          "attributes": {
            "COLOR_0": 2,
            "NORMAL": 1,
            "POSITION": 0,
            "TEXCOORD_0": 3
          },
          "indices": 4,
          "material": 0,
          "mode": 4
        }
      ]
    }
  ],
  "nodes": [
    {
      "children": [
        1
      ],
      "matrix": [
        1.0,
        0.0,
        0.0,
        0.0,
        0.0,
        2.220446049250313e-16,
        -1.0,
        0.0,
        0.0,
        1.0,
        2.220446049250313e-16,
        0.0,
        0.0,
        0.0,
        0.0,
        1.0
      ],
      "name": "Sketchfab_model"
    },
    {
      "children": [
        2
      ],
      "name": "root"
    },
    {
      "children": [
        3
      ],
      "matrix": [
        1.0,
        0.0,
        0.0,
        0.0,
        0.0,
        2.220446049250313e-16,
        1.0,
        0.0,
        0.0,
        -1.0,
        2.220446049250313e-16,
        0.0,
        0.0,
        0.0,
        0.0,
        1.0
      ],
      "name": "GLTF_SceneRootNode"
    },
    {
      "children": [
        4
      ],
      "matrix": [
        -0.7691528390099005,
        0.0,
        0.6409703481900616,
        0.0,
        -0.0,
        1.0012187957763672,
        0.0,
        0.0,
        -0.6409703481900616,
        -0.0,
        -0.7691528390099005,
        0.0,
        -1.2298450469970703,
        -1.3658705949783325,
        -1.3630998134613037,
        1.0
      ],
      "name": "meshNode.001_0"
    },
    {
      "mesh": 0,
      "name": "Object_4"
    }
  ],
  "samplers": [
    {
      "magFilter": 9729,
      "minFilter": 9987,
      "wrapS": 10497,
      "wrapT": 10497
    }
  ],
  "scene": 0,
  "scenes": [
    {
      "name": "Sketchfab_Scene",
      "nodes": [
        0
      ]
    }
  ],
  "textures": [
    {
      "sampler": 0,
      "source": 0
    }
  ]
}
